{
 "cells": [
  {
   "cell_type": "code",
   "execution_count": null,
   "outputs": [],
   "source": [
    "! pip install opencv-python\n"
   ],
   "metadata": {
    "collapsed": false
   }
  },
  {
   "cell_type": "code",
   "execution_count": null,
   "outputs": [],
   "source": [
    "from spitfire_video_editing import *\n",
    "\n",
    "# append_video(\"donaldVid.mp4\", \"joeRoast.mp4\", \"appended.mp4\")"
   ],
   "metadata": {
    "collapsed": false
   }
  },
  {
   "cell_type": "code",
   "execution_count": 6,
   "outputs": [],
   "source": [
    "!pip install mutagen"
   ],
   "metadata": {
    "collapsed": false
   }
  },
  {
   "cell_type": "code",
   "execution_count": 7,
   "outputs": [],
   "source": [
    "trim_video(\"appended.mp4\", \"trimmed.mp4\", 1.0)"
   ],
   "metadata": {
    "collapsed": false
   }
  },
  {
   "cell_type": "code",
   "execution_count": 8,
   "outputs": [
    {
     "data": {
      "text/plain": "['c', 's']"
     },
     "execution_count": 8,
     "metadata": {},
     "output_type": "execute_result"
    }
   ],
   "source": [
    "from mutagen.mp3 import MP3\n",
    "\n",
    "def get_audio_length(audio_file):\n",
    "    audio = MP3(audio_file)\n",
    "    audio_length = audio.info.length\n",
    "    return audio_length\n",
    "\n",
    "audio_file = \"trump_biden/verse0.mpeg\"\n",
    "length = get_audio_length(audio_file)\n",
    "print(f\"Audio length: {length} seconds\")"
   ],
   "metadata": {
    "collapsed": false
   }
  },
  {
   "cell_type": "code",
   "execution_count": null,
   "outputs": [],
   "source": [
    "# LENGTH OF AN MP3 FILE\n",
    "\n",
    "from pydub import AudioSegment\n",
    "\n",
    "def get_audio_length(audio_file):\n",
    "    audio = AudioSegment.from(audio_file)\n",
    "    audio_length = len(audio) / 1000\n",
    "    return audio_length\n",
    "\n",
    "audio_file = \"trump_biden/\"\n",
    "length = get_audio_length(audio_file)\n",
    "print(f\"Audio length: {length} seconds\")"
   ],
   "metadata": {
    "collapsed": false
   }
  },
  {
   "cell_type": "code",
   "execution_count": null,
   "outputs": [],
   "source": [
    "def get_video_length(video_file):\n",
    "    cap = cv2.VideoCapture(video_file)\n",
    "    frame_count = int(cap.get(cv2.CAP_PROP_FRAME_COUNT))\n",
    "    fps = int(cap.get(cv2.CAP_PROP_FPS))\n",
    "    video_length = frame_count / fps\n",
    "    cap.release()\n",
    "    return video_length\n",
    "\n",
    "video_file = \"donaldVid.mp4\"\n",
    "length = get_video_length(video_file)\n",
    "print(f\"Video length: {length} seconds\")"
   ],
   "metadata": {
    "collapsed": false
   }
  },
  {
   "cell_type": "code",
   "execution_count": null,
   "outputs": [],
   "source": [
    "import cv2\n",
    "import numpy as np\n",
    "\n",
    "# Load the video files\n",
    "video_file_1 = \"donaldVid.mp4\"\n",
    "video_file_2 = \"joeRoast.mp4\"\n",
    "\n",
    "def combine_vids(video_file_1, video_file_2):\n",
    "\n",
    "    cap1 = cv2.VideoCapture(video_file_1)\n",
    "    cap2 = cv2.VideoCapture(video_file_2)\n",
    "\n",
    "    # Get video properties\n",
    "    width1 = int(cap1.get(cv2.CAP_PROP_FRAME_WIDTH))\n",
    "    height1 = int(cap1.get(cv2.CAP_PROP_FRAME_HEIGHT))\n",
    "    width2 = int(cap2.get(cv2.CAP_PROP_FRAME_WIDTH))\n",
    "    height2 = int(cap2.get(cv2.CAP_PROP_FRAME_HEIGHT))\n",
    "\n",
    "    fps1 = int(cap1.get(cv2.CAP_PROP_FPS))\n",
    "    fps2 = int(cap2.get(cv2.CAP_PROP_FPS))\n",
    "\n",
    "    # Set the output video properties and create VideoWriter object\n",
    "    output_width = width1 + width2\n",
    "    output_height = max(height1, height2)\n",
    "    output_fps = min(fps1, fps2)\n",
    "    output_file = \"outputVid.mp4\"\n",
    "    fourcc = cv2.VideoWriter_fourcc(*'mp4v')\n",
    "\n",
    "    out = cv2.VideoWriter(output_file, fourcc, output_fps, (output_width, output_height))\n",
    "\n",
    "    while cap1.isOpened() and cap2.isOpened():\n",
    "        ret1, frame1 = cap1.read()\n",
    "        ret2, frame2 = cap2.read()\n",
    "\n",
    "        if ret1 and ret2:\n",
    "            # Resize frames to have the same height\n",
    "            frame1_resized = cv2.resize(frame1, (width1, output_height))\n",
    "            frame2_resized = cv2.resize(frame2, (width2, output_height))\n",
    "\n",
    "            # Combine frames side by side\n",
    "            combined_frame = np.hstack((frame1_resized, frame2_resized))\n",
    "\n",
    "            # Write the combined frame to the output video\n",
    "            out.write(combined_frame)\n",
    "\n",
    "            # Display the combined frame (optional)\n",
    "            cv2.imshow('Combined Video', combined_frame)\n",
    "\n",
    "            if cv2.waitKey(1) & 0xFF== ord('q'):\n",
    "                break\n",
    "        else:\n",
    "            break\n",
    "\n",
    "    # Release resources\n",
    "    cap1.release()\n",
    "    cap2.release()\n",
    "    out.release()\n",
    "    cv2.destroyAllWindows()"
   ],
   "metadata": {
    "collapsed": false
   }
  },
  {
   "cell_type": "code",
   "execution_count": 1,
   "outputs": [
    {
     "name": "stderr",
     "output_type": "stream",
     "text": [
      "ffmpeg version 5.1.2 Copyright (c) 2000-2022 the FFmpeg developers\n",
      "  built with Apple clang version 14.0.0 (clang-1400.0.29.202)\n",
      "  configuration: --prefix=/opt/homebrew/Cellar/ffmpeg/5.1.2_6 --enable-shared --enable-pthreads --enable-version3 --cc=clang --host-cflags= --host-ldflags= --enable-ffplay --enable-gnutls --enable-gpl --enable-libaom --enable-libaribb24 --enable-libbluray --enable-libdav1d --enable-libmp3lame --enable-libopus --enable-librav1e --enable-librist --enable-librubberband --enable-libsnappy --enable-libsrt --enable-libsvtav1 --enable-libtesseract --enable-libtheora --enable-libvidstab --enable-libvmaf --enable-libvorbis --enable-libvpx --enable-libwebp --enable-libx264 --enable-libx265 --enable-libxml2 --enable-libxvid --enable-lzma --enable-libfontconfig --enable-libfreetype --enable-frei0r --enable-libass --enable-libopencore-amrnb --enable-libopencore-amrwb --enable-libopenjpeg --enable-libspeex --enable-libsoxr --enable-libzmq --enable-libzimg --disable-libjack --disable-indev=jack --enable-videotoolbox --enable-neon\n",
      "  libavutil      57. 28.100 / 57. 28.100\n",
      "  libavcodec     59. 37.100 / 59. 37.100\n",
      "  libavformat    59. 27.100 / 59. 27.100\n",
      "  libavdevice    59.  7.100 / 59.  7.100\n",
      "  libavfilter     8. 44.100 /  8. 44.100\n",
      "  libswscale      6.  7.100 /  6.  7.100\n",
      "  libswresample   4.  7.100 /  4.  7.100\n",
      "  libpostproc    56.  6.100 / 56.  6.100\n",
      "Input #0, mov,mp4,m4a,3gp,3g2,mj2, from 'swift_tate.mp4':\n",
      "  Metadata:\n",
      "    major_brand     : isom\n",
      "    minor_version   : 512\n",
      "    compatible_brands: isomiso2mp41\n",
      "    encoder         : Lavf59.27.100\n",
      "  Duration: 00:01:32.31, start: 0.000000, bitrate: 591 kb/s\n",
      "  Stream #0:0[0x1](und): Audio: aac (LC) (mp4a / 0x6134706D), 44100 Hz, mono, fltp, 70 kb/s (default)\n",
      "    Metadata:\n",
      "      handler_name    : SoundHandler\n",
      "      vendor_id       : [0][0][0][0]\n",
      "  Stream #0:1[0x2](und): Video: mpeg4 (Simple Profile) (mp4v / 0x7634706D), yuv420p, 512x256 [SAR 1:1 DAR 2:1], 513 kb/s, 29 fps, 29 tbr, 14848 tbn (default)\n",
      "    Metadata:\n",
      "      handler_name    : VideoHandler\n",
      "      vendor_id       : [0][0][0][0]\n",
      "Input #1, mov,mp4,m4a,3gp,3g2,mj2, from 'beats/beat1.m4a':\n",
      "  Metadata:\n",
      "    major_brand     : M4A \n",
      "    minor_version   : 0\n",
      "    compatible_brands: M4A isommp42\n",
      "    creation_time   : 2023-04-02T11:53:04.000000Z\n",
      "    iTunSMPB        :  00000000 00000840 0000031D 00000000006D10A3 00000000 00000000 00000000 00000000 00000000 00000000 00000000 00000000\n",
      "  Duration: 00:02:28.91, start: 0.044000, bitrate: 253 kb/s\n",
      "  Stream #1:0[0x1](und): Audio: aac (LC) (mp4a / 0x6134706D), 48000 Hz, stereo, fltp, 251 kb/s (default)\n",
      "    Metadata:\n",
      "      creation_time   : 2023-04-02T11:53:04.000000Z\n",
      "      handler_name    : Core Media Audio\n",
      "      vendor_id       : [0][0][0][0]\n",
      "Stream mapping:\n",
      "  Stream #0:0 (aac) -> amix\n",
      "  Stream #1:0 (aac) -> concat:in0:a0\n",
      "  Stream #0:1 -> #0:0 (copy)\n",
      "  amix:default -> Stream #0:1 (aac)\n",
      "Press [q] to stop, [?] for help\n",
      "Output #0, ipod, to 'test.m4a':\n",
      "  Metadata:\n",
      "    major_brand     : isom\n",
      "    minor_version   : 512\n",
      "    compatible_brands: isomiso2mp41\n",
      "    encoder         : Lavf59.27.100\n",
      "  Stream #0:0(und): Video: mpeg4 (Simple Profile) (mp4v / 0x7634706D), yuv420p, 512x256 [SAR 1:1 DAR 2:1], q=2-31, 513 kb/s, 29 fps, 29 tbr, 14848 tbn (default)\n",
      "    Metadata:\n",
      "      handler_name    : VideoHandler\n",
      "      vendor_id       : [0][0][0][0]\n",
      "  Stream #0:1: Audio: aac (LC) (mp4a / 0x6134706D), 44100 Hz, mono, fltp, 69 kb/s\n",
      "    Metadata:\n",
      "      encoder         : Lavc59.37.100 aac\n",
      "frame= 2677 fps=0.0 q=-1.0 Lsize=    6656kB time=00:01:32.32 bitrate= 590.6kbits/s speed= 113x    \n",
      "video:5787kB audio:789kB subtitle:0kB other streams:0kB global headers:0kB muxing overhead: 1.210398%\n",
      "[aac @ 0x147f08bd0] Qavg: 179.922\n"
     ]
    }
   ],
   "source": [
    "import ffmpeg\n",
    "\n",
    "def add_background_music(video_file, music_file, output_file, volume=0.1):\n",
    "    video = ffmpeg.input(video_file)\n",
    "    music = ffmpeg.input(music_file)\n",
    "\n",
    "    video_duration = float(ffmpeg.probe(video_file)['format']['duration'])\n",
    "    music_duration = float(ffmpeg.probe(music_file)['format']['duration'])\n",
    "\n",
    "    loop_count = int(video_duration // music_duration) + 1\n",
    "\n",
    "    audio = ffmpeg.concat(*([music] * loop_count), v=0, a=1).filter(\"atrim\", duration=video_duration)\n",
    "    audio = audio.filter(\"volume\", volume)\n",
    "\n",
    "    video_stream = video.video\n",
    "    audio_stream = video.audio\n",
    "\n",
    "    mixed_audio = ffmpeg.filter([audio_stream, audio], \"amix\")\n",
    "\n",
    "    output = ffmpeg.output(video_stream, mixed_audio, output_file, vcodec='copy', acodec=\"aac\", strict=\"experimental\")\n",
    "    ffmpeg.run(output)\n",
    "\n",
    "video_file = \"path/to/your/video_file.mp4\"\n",
    "music_file = \"path/to/your/background_music.mp3\"\n",
    "output_file = \"path/to/your/output_video_file_with_music.mp4\"\n",
    "\n",
    "add_background_music(\"swift_tate.mp4\", \"beats/beat1.m4a\", \"test.m4a\")"
   ],
   "metadata": {
    "collapsed": false
   }
  },
  {
   "cell_type": "code",
   "execution_count": 9,
   "outputs": [],
   "source": [
    "from spitfire_video_editing import *\n",
    "\n",
    "\n",
    "def mix_audio_files(main_audio_file, background_audio_file, output_file, background_volume=-10):\n",
    "    main_audio = AudioSegment.from_mp3(main_audio_file)\n",
    "    background_audio = AudioSegment.from_mp3(background_audio_file)\n",
    "\n",
    "    # Set the background audio volume\n",
    "    background_audio = background_audio + background_volume\n",
    "\n",
    "    # Overlay the audio files\n",
    "    combined_audio = main_audio.overlay(background_audio)\n",
    "\n",
    "    # Export the output file\n",
    "    combined_audio.export(output_file, format=\"mp3\")\n",
    "\n",
    "\n",
    "mix_audio_files(\"audio_temp.mp3\", \"beats/beat1.mp3\", \"test.mp3\")"
   ],
   "metadata": {
    "collapsed": false
   }
  },
  {
   "cell_type": "code",
   "execution_count": null,
   "outputs": [],
   "source": [],
   "metadata": {
    "collapsed": false
   }
  },
  {
   "cell_type": "code",
   "execution_count": 1,
   "outputs": [],
   "source": [
    "from spitfire_deepfake import *\n",
    "import os"
   ],
   "metadata": {
    "collapsed": false
   }
  },
  {
   "cell_type": "code",
   "execution_count": 13,
   "outputs": [],
   "source": [
    "def append_vids(video1, video2, output):\n",
    "    # Create a temporary file with the list of input video files\n",
    "    with open(\"input_list.txt\", \"w\") as f:\n",
    "        f.write(f\"file '{video1}'\\n\")\n",
    "        f.write(f\"file '{video2}'\\n\")\n",
    "\n",
    "    # Call ffmpeg to concatenate the video files\n",
    "    command = f\"ffmpeg -f concat -safe 0 -i input_list.txt -c copy {output}\"\n",
    "    os.system(command)\n",
    "\n",
    "    if os.path.exists(\"input_list.txt\"):\n",
    "        os.remove(\"input_list.txt\")"
   ],
   "metadata": {
    "collapsed": false
   }
  },
  {
   "cell_type": "code",
   "execution_count": 12,
   "outputs": [
    {
     "name": "stderr",
     "output_type": "stream",
     "text": [
      "ffmpeg version 5.1.2 Copyright (c) 2000-2022 the FFmpeg developers\n",
      "  built with Apple clang version 14.0.0 (clang-1400.0.29.202)\n",
      "  configuration: --prefix=/opt/homebrew/Cellar/ffmpeg/5.1.2_6 --enable-shared --enable-pthreads --enable-version3 --cc=clang --host-cflags= --host-ldflags= --enable-ffplay --enable-gnutls --enable-gpl --enable-libaom --enable-libaribb24 --enable-libbluray --enable-libdav1d --enable-libmp3lame --enable-libopus --enable-librav1e --enable-librist --enable-librubberband --enable-libsnappy --enable-libsrt --enable-libsvtav1 --enable-libtesseract --enable-libtheora --enable-libvidstab --enable-libvmaf --enable-libvorbis --enable-libvpx --enable-libwebp --enable-libx264 --enable-libx265 --enable-libxml2 --enable-libxvid --enable-lzma --enable-libfontconfig --enable-libfreetype --enable-frei0r --enable-libass --enable-libopencore-amrnb --enable-libopencore-amrwb --enable-libopenjpeg --enable-libspeex --enable-libsoxr --enable-libzmq --enable-libzimg --disable-libjack --disable-indev=jack --enable-videotoolbox --enable-neon\n",
      "  libavutil      57. 28.100 / 57. 28.100\n",
      "  libavcodec     59. 37.100 / 59. 37.100\n",
      "  libavformat    59. 27.100 / 59. 27.100\n",
      "  libavdevice    59.  7.100 / 59.  7.100\n",
      "  libavfilter     8. 44.100 /  8. 44.100\n",
      "  libswscale      6.  7.100 /  6.  7.100\n",
      "  libswresample   4.  7.100 /  4.  7.100\n",
      "  libpostproc    56.  6.100 / 56.  6.100\n",
      "[mov,mp4,m4a,3gp,3g2,mj2 @ 0x13bf04280] Auto-inserting h264_mp4toannexb bitstream filter\n",
      "Input #0, concat, from 'input_list.txt':\n",
      "  Duration: N/A, start: 0.000000, bitrate: 759 kb/s\n",
      "  Stream #0:0(und): Video: h264 (High) (avc1 / 0x31637661), yuv420p(progressive), 246x280, 759 kb/s, 16.67 fps, 16.67 tbr, 12800 tbn\n",
      "    Metadata:\n",
      "      handler_name    : VideoHandler\n",
      "      vendor_id       : [0][0][0][0]\n",
      "      encoder         : Lavc59.37.100 libx264\n",
      "Output #0, mp4, to 'A_face_videos/Optimus_Prime_ALong.mp4':\n",
      "  Metadata:\n",
      "    encoder         : Lavf59.27.100\n",
      "  Stream #0:0(und): Video: h264 (High) (avc1 / 0x31637661), yuv420p(progressive), 246x280, q=2-31, 759 kb/s, 16.67 fps, 16.67 tbr, 12800 tbn\n",
      "    Metadata:\n",
      "      handler_name    : VideoHandler\n",
      "      vendor_id       : [0][0][0][0]\n",
      "      encoder         : Lavc59.37.100 libx264\n",
      "Stream mapping:\n",
      "  Stream #0:0 -> #0:0 (copy)\n",
      "Press [q] to stop, [?] for help\n",
      "[mov,mp4,m4a,3gp,3g2,mj2 @ 0x13ca04410] Auto-inserting h264_mp4toannexb bitstream filter\n",
      "frame=   84 fps=0.0 q=-1.0 Lsize=     469kB time=00:00:04.86 bitrate= 791.3kbits/s speed=1.42e+03x    \n",
      "video:468kB audio:0kB subtitle:0kB other streams:0kB global headers:0kB muxing overhead: 0.387599%\n"
     ]
    }
   ],
   "source": [
    "append_vids(\"A_face_videos/Optimus_Prime_A.mp4\", \"A_face_videos/Optimus_Prime_A copy.mp4\", \"A_face_videos/Optimus_Prime_ALong.mp4\")"
   ],
   "metadata": {
    "collapsed": false
   }
  },
  {
   "cell_type": "code",
   "execution_count": 15,
   "outputs": [
    {
     "name": "stderr",
     "output_type": "stream",
     "text": [
      "ffmpeg version 5.1.2 Copyright (c) 2000-2022 the FFmpeg developers\n",
      "  built with Apple clang version 14.0.0 (clang-1400.0.29.202)\n",
      "  configuration: --prefix=/opt/homebrew/Cellar/ffmpeg/5.1.2_6 --enable-shared --enable-pthreads --enable-version3 --cc=clang --host-cflags= --host-ldflags= --enable-ffplay --enable-gnutls --enable-gpl --enable-libaom --enable-libaribb24 --enable-libbluray --enable-libdav1d --enable-libmp3lame --enable-libopus --enable-librav1e --enable-librist --enable-librubberband --enable-libsnappy --enable-libsrt --enable-libsvtav1 --enable-libtesseract --enable-libtheora --enable-libvidstab --enable-libvmaf --enable-libvorbis --enable-libvpx --enable-libwebp --enable-libx264 --enable-libx265 --enable-libxml2 --enable-libxvid --enable-lzma --enable-libfontconfig --enable-libfreetype --enable-frei0r --enable-libass --enable-libopencore-amrnb --enable-libopencore-amrwb --enable-libopenjpeg --enable-libspeex --enable-libsoxr --enable-libzmq --enable-libzimg --disable-libjack --disable-indev=jack --enable-videotoolbox --enable-neon\n",
      "  libavutil      57. 28.100 / 57. 28.100\n",
      "  libavcodec     59. 37.100 / 59. 37.100\n",
      "  libavformat    59. 27.100 / 59. 27.100\n",
      "  libavdevice    59.  7.100 / 59.  7.100\n",
      "  libavfilter     8. 44.100 /  8. 44.100\n",
      "  libswscale      6.  7.100 /  6.  7.100\n",
      "  libswresample   4.  7.100 /  4.  7.100\n",
      "  libpostproc    56.  6.100 / 56.  6.100\n",
      "[mov,mp4,m4a,3gp,3g2,mj2 @ 0x137904320] Auto-inserting h264_mp4toannexb bitstream filter\n",
      "Input #0, concat, from 'input_list.txt':\n",
      "  Duration: N/A, start: 0.000000, bitrate: 759 kb/s\n",
      "  Stream #0:0(und): Video: h264 (High) (avc1 / 0x31637661), yuv420p(progressive), 246x280, 759 kb/s, 16.67 fps, 16.67 tbr, 12800 tbn\n",
      "    Metadata:\n",
      "      handler_name    : VideoHandler\n",
      "      vendor_id       : [0][0][0][0]\n",
      "      encoder         : Lavc59.37.100 libx264\n",
      "Output #0, mp4, to 'temp0.mp4':\n",
      "  Metadata:\n",
      "    encoder         : Lavf59.27.100\n",
      "  Stream #0:0(und): Video: h264 (High) (avc1 / 0x31637661), yuv420p(progressive), 246x280, q=2-31, 759 kb/s, 16.67 fps, 16.67 tbr, 12800 tbn\n",
      "    Metadata:\n",
      "      handler_name    : VideoHandler\n",
      "      vendor_id       : [0][0][0][0]\n",
      "      encoder         : Lavc59.37.100 libx264\n",
      "Stream mapping:\n",
      "  Stream #0:0 -> #0:0 (copy)\n",
      "Press [q] to stop, [?] for help\n",
      "[mov,mp4,m4a,3gp,3g2,mj2 @ 0x1379041a0] Auto-inserting h264_mp4toannexb bitstream filter\n",
      "frame=   84 fps=0.0 q=-1.0 Lsize=     469kB time=00:00:04.86 bitrate= 791.3kbits/s speed=1.61e+03x    \n",
      "video:468kB audio:0kB subtitle:0kB other streams:0kB global headers:0kB muxing overhead: 0.387599%\n",
      "ffmpeg version 5.1.2 Copyright (c) 2000-2022 the FFmpeg developers\n",
      "  built with Apple clang version 14.0.0 (clang-1400.0.29.202)\n",
      "  configuration: --prefix=/opt/homebrew/Cellar/ffmpeg/5.1.2_6 --enable-shared --enable-pthreads --enable-version3 --cc=clang --host-cflags= --host-ldflags= --enable-ffplay --enable-gnutls --enable-gpl --enable-libaom --enable-libaribb24 --enable-libbluray --enable-libdav1d --enable-libmp3lame --enable-libopus --enable-librav1e --enable-librist --enable-librubberband --enable-libsnappy --enable-libsrt --enable-libsvtav1 --enable-libtesseract --enable-libtheora --enable-libvidstab --enable-libvmaf --enable-libvorbis --enable-libvpx --enable-libwebp --enable-libx264 --enable-libx265 --enable-libxml2 --enable-libxvid --enable-lzma --enable-libfontconfig --enable-libfreetype --enable-frei0r --enable-libass --enable-libopencore-amrnb --enable-libopencore-amrwb --enable-libopenjpeg --enable-libspeex --enable-libsoxr --enable-libzmq --enable-libzimg --disable-libjack --disable-indev=jack --enable-videotoolbox --enable-neon\n",
      "  libavutil      57. 28.100 / 57. 28.100\n",
      "  libavcodec     59. 37.100 / 59. 37.100\n",
      "  libavformat    59. 27.100 / 59. 27.100\n",
      "  libavdevice    59.  7.100 / 59.  7.100\n",
      "  libavfilter     8. 44.100 /  8. 44.100\n",
      "  libswscale      6.  7.100 /  6.  7.100\n",
      "  libswresample   4.  7.100 /  4.  7.100\n",
      "  libpostproc    56.  6.100 / 56.  6.100\n",
      "[mov,mp4,m4a,3gp,3g2,mj2 @ 0x11de04fb0] Auto-inserting h264_mp4toannexb bitstream filter\n",
      "Input #0, concat, from 'input_list.txt':\n",
      "  Duration: N/A, start: 0.000000, bitrate: 760 kb/s\n",
      "  Stream #0:0(und): Video: h264 (High) (avc1 / 0x31637661), yuv420p(progressive), 246x280, 760 kb/s, 16.67 fps, 16.67 tbr, 12800 tbn\n",
      "    Metadata:\n",
      "      handler_name    : VideoHandler\n",
      "      vendor_id       : [0][0][0][0]\n",
      "      encoder         : Lavc59.37.100 libx264\n",
      "Output #0, mp4, to 'temp1.mp4':\n",
      "  Metadata:\n",
      "    encoder         : Lavf59.27.100\n",
      "  Stream #0:0(und): Video: h264 (High) (avc1 / 0x31637661), yuv420p(progressive), 246x280, q=2-31, 760 kb/s, 16.67 fps, 16.67 tbr, 12800 tbn\n",
      "    Metadata:\n",
      "      handler_name    : VideoHandler\n",
      "      vendor_id       : [0][0][0][0]\n",
      "      encoder         : Lavc59.37.100 libx264\n",
      "Stream mapping:\n",
      "  Stream #0:0 -> #0:0 (copy)\n",
      "Press [q] to stop, [?] for help\n",
      "[mov,mp4,m4a,3gp,3g2,mj2 @ 0x11de04fb0] Auto-inserting h264_mp4toannexb bitstream filter\n",
      "frame=  126 fps=0.0 q=-1.0 Lsize=     704kB time=00:00:07.38 bitrate= 781.2kbits/s speed=2.76e+03x    \n",
      "video:701kB audio:0kB subtitle:0kB other streams:0kB global headers:0kB muxing overhead: 0.328150%\n",
      "ffmpeg version 5.1.2 Copyright (c) 2000-2022 the FFmpeg developers\n",
      "  built with Apple clang version 14.0.0 (clang-1400.0.29.202)\n",
      "  configuration: --prefix=/opt/homebrew/Cellar/ffmpeg/5.1.2_6 --enable-shared --enable-pthreads --enable-version3 --cc=clang --host-cflags= --host-ldflags= --enable-ffplay --enable-gnutls --enable-gpl --enable-libaom --enable-libaribb24 --enable-libbluray --enable-libdav1d --enable-libmp3lame --enable-libopus --enable-librav1e --enable-librist --enable-librubberband --enable-libsnappy --enable-libsrt --enable-libsvtav1 --enable-libtesseract --enable-libtheora --enable-libvidstab --enable-libvmaf --enable-libvorbis --enable-libvpx --enable-libwebp --enable-libx264 --enable-libx265 --enable-libxml2 --enable-libxvid --enable-lzma --enable-libfontconfig --enable-libfreetype --enable-frei0r --enable-libass --enable-libopencore-amrnb --enable-libopencore-amrwb --enable-libopenjpeg --enable-libspeex --enable-libsoxr --enable-libzmq --enable-libzimg --disable-libjack --disable-indev=jack --enable-videotoolbox --enable-neon\n",
      "  libavutil      57. 28.100 / 57. 28.100\n",
      "  libavcodec     59. 37.100 / 59. 37.100\n",
      "  libavformat    59. 27.100 / 59. 27.100\n",
      "  libavdevice    59.  7.100 / 59.  7.100\n",
      "  libavfilter     8. 44.100 /  8. 44.100\n",
      "  libswscale      6.  7.100 /  6.  7.100\n",
      "  libswresample   4.  7.100 /  4.  7.100\n",
      "  libpostproc    56.  6.100 / 56.  6.100\n",
      "[mov,mp4,m4a,3gp,3g2,mj2 @ 0x130704a40] Auto-inserting h264_mp4toannexb bitstream filter\n",
      "Input #0, concat, from 'input_list.txt':\n",
      "  Duration: N/A, start: 0.000000, bitrate: 760 kb/s\n",
      "  Stream #0:0(und): Video: h264 (High) (avc1 / 0x31637661), yuv420p(progressive), 246x280, 760 kb/s, 16.67 fps, 16.67 tbr, 12800 tbn\n",
      "    Metadata:\n",
      "      handler_name    : VideoHandler\n",
      "      vendor_id       : [0][0][0][0]\n",
      "      encoder         : Lavc59.37.100 libx264\n",
      "Output #0, mp4, to 'temp2.mp4':\n",
      "  Metadata:\n",
      "    encoder         : Lavf59.27.100\n",
      "  Stream #0:0(und): Video: h264 (High) (avc1 / 0x31637661), yuv420p(progressive), 246x280, q=2-31, 760 kb/s, 16.67 fps, 16.67 tbr, 12800 tbn\n",
      "    Metadata:\n",
      "      handler_name    : VideoHandler\n",
      "      vendor_id       : [0][0][0][0]\n",
      "      encoder         : Lavc59.37.100 libx264\n",
      "Stream mapping:\n",
      "  Stream #0:0 -> #0:0 (copy)\n",
      "Press [q] to stop, [?] for help\n",
      "[mov,mp4,m4a,3gp,3g2,mj2 @ 0x1320045e0] Auto-inserting h264_mp4toannexb bitstream filter\n",
      "frame=  168 fps=0.0 q=-1.0 Lsize=     938kB time=00:00:09.90 bitrate= 776.2kbits/s speed=3.11e+03x    \n",
      "video:935kB audio:0kB subtitle:0kB other streams:0kB global headers:0kB muxing overhead: 0.298426%\n",
      "ffmpeg version 5.1.2 Copyright (c) 2000-2022 the FFmpeg developers\n",
      "  built with Apple clang version 14.0.0 (clang-1400.0.29.202)\n",
      "  configuration: --prefix=/opt/homebrew/Cellar/ffmpeg/5.1.2_6 --enable-shared --enable-pthreads --enable-version3 --cc=clang --host-cflags= --host-ldflags= --enable-ffplay --enable-gnutls --enable-gpl --enable-libaom --enable-libaribb24 --enable-libbluray --enable-libdav1d --enable-libmp3lame --enable-libopus --enable-librav1e --enable-librist --enable-librubberband --enable-libsnappy --enable-libsrt --enable-libsvtav1 --enable-libtesseract --enable-libtheora --enable-libvidstab --enable-libvmaf --enable-libvorbis --enable-libvpx --enable-libwebp --enable-libx264 --enable-libx265 --enable-libxml2 --enable-libxvid --enable-lzma --enable-libfontconfig --enable-libfreetype --enable-frei0r --enable-libass --enable-libopencore-amrnb --enable-libopencore-amrwb --enable-libopenjpeg --enable-libspeex --enable-libsoxr --enable-libzmq --enable-libzimg --disable-libjack --disable-indev=jack --enable-videotoolbox --enable-neon\n",
      "  libavutil      57. 28.100 / 57. 28.100\n",
      "  libavcodec     59. 37.100 / 59. 37.100\n",
      "  libavformat    59. 27.100 / 59. 27.100\n",
      "  libavdevice    59.  7.100 / 59.  7.100\n",
      "  libavfilter     8. 44.100 /  8. 44.100\n",
      "  libswscale      6.  7.100 /  6.  7.100\n",
      "  libswresample   4.  7.100 /  4.  7.100\n",
      "  libpostproc    56.  6.100 / 56.  6.100\n",
      "[mov,mp4,m4a,3gp,3g2,mj2 @ 0x1348046a0] Auto-inserting h264_mp4toannexb bitstream filter\n",
      "Input #0, concat, from 'input_list.txt':\n",
      "  Duration: N/A, start: 0.000000, bitrate: 760 kb/s\n",
      "  Stream #0:0(und): Video: h264 (High) (avc1 / 0x31637661), yuv420p(progressive), 246x280, 760 kb/s, 16.67 fps, 16.67 tbr, 12800 tbn\n",
      "    Metadata:\n",
      "      handler_name    : VideoHandler\n",
      "      vendor_id       : [0][0][0][0]\n",
      "      encoder         : Lavc59.37.100 libx264\n",
      "Output #0, mp4, to 'temp3.mp4':\n",
      "  Metadata:\n",
      "    encoder         : Lavf59.27.100\n",
      "  Stream #0:0(und): Video: h264 (High) (avc1 / 0x31637661), yuv420p(progressive), 246x280, q=2-31, 760 kb/s, 16.67 fps, 16.67 tbr, 12800 tbn\n",
      "    Metadata:\n",
      "      handler_name    : VideoHandler\n",
      "      vendor_id       : [0][0][0][0]\n",
      "      encoder         : Lavc59.37.100 libx264\n",
      "Stream mapping:\n",
      "  Stream #0:0 -> #0:0 (copy)\n",
      "Press [q] to stop, [?] for help\n",
      "[mov,mp4,m4a,3gp,3g2,mj2 @ 0x132f04480] Auto-inserting h264_mp4toannexb bitstream filter\n",
      "frame=  210 fps=0.0 q=-1.0 Lsize=    1172kB time=00:00:12.42 bitrate= 773.3kbits/s speed=3.5e+03x    \n",
      "video:1169kB audio:0kB subtitle:0kB other streams:0kB global headers:0kB muxing overhead: 0.281928%\n",
      "ffmpeg version 5.1.2 Copyright (c) 2000-2022 the FFmpeg developers\n",
      "  built with Apple clang version 14.0.0 (clang-1400.0.29.202)\n",
      "  configuration: --prefix=/opt/homebrew/Cellar/ffmpeg/5.1.2_6 --enable-shared --enable-pthreads --enable-version3 --cc=clang --host-cflags= --host-ldflags= --enable-ffplay --enable-gnutls --enable-gpl --enable-libaom --enable-libaribb24 --enable-libbluray --enable-libdav1d --enable-libmp3lame --enable-libopus --enable-librav1e --enable-librist --enable-librubberband --enable-libsnappy --enable-libsrt --enable-libsvtav1 --enable-libtesseract --enable-libtheora --enable-libvidstab --enable-libvmaf --enable-libvorbis --enable-libvpx --enable-libwebp --enable-libx264 --enable-libx265 --enable-libxml2 --enable-libxvid --enable-lzma --enable-libfontconfig --enable-libfreetype --enable-frei0r --enable-libass --enable-libopencore-amrnb --enable-libopencore-amrwb --enable-libopenjpeg --enable-libspeex --enable-libsoxr --enable-libzmq --enable-libzimg --disable-libjack --disable-indev=jack --enable-videotoolbox --enable-neon\n",
      "  libavutil      57. 28.100 / 57. 28.100\n",
      "  libavcodec     59. 37.100 / 59. 37.100\n",
      "  libavformat    59. 27.100 / 59. 27.100\n",
      "  libavdevice    59.  7.100 / 59.  7.100\n",
      "  libavfilter     8. 44.100 /  8. 44.100\n",
      "  libswscale      6.  7.100 /  6.  7.100\n",
      "  libswresample   4.  7.100 /  4.  7.100\n",
      "  libpostproc    56.  6.100 / 56.  6.100\n",
      "[mov,mp4,m4a,3gp,3g2,mj2 @ 0x14cf048f0] Auto-inserting h264_mp4toannexb bitstream filter\n",
      "Input #0, concat, from 'input_list.txt':\n",
      "  Duration: N/A, start: 0.000000, bitrate: 760 kb/s\n",
      "  Stream #0:0(und): Video: h264 (High) (avc1 / 0x31637661), yuv420p(progressive), 246x280, 760 kb/s, 16.67 fps, 16.67 tbr, 12800 tbn\n",
      "    Metadata:\n",
      "      handler_name    : VideoHandler\n",
      "      vendor_id       : [0][0][0][0]\n",
      "      encoder         : Lavc59.37.100 libx264\n",
      "Output #0, mp4, to 'temp4.mp4':\n",
      "  Metadata:\n",
      "    encoder         : Lavf59.27.100\n",
      "  Stream #0:0(und): Video: h264 (High) (avc1 / 0x31637661), yuv420p(progressive), 246x280, q=2-31, 760 kb/s, 16.67 fps, 16.67 tbr, 12800 tbn\n",
      "    Metadata:\n",
      "      handler_name    : VideoHandler\n",
      "      vendor_id       : [0][0][0][0]\n",
      "      encoder         : Lavc59.37.100 libx264\n",
      "Stream mapping:\n",
      "  Stream #0:0 -> #0:0 (copy)\n",
      "Press [q] to stop, [?] for help\n",
      "[mov,mp4,m4a,3gp,3g2,mj2 @ 0x13ce04080] Auto-inserting h264_mp4toannexb bitstream filter\n",
      "frame=  252 fps=0.0 q=-1.0 Lsize=    1407kB time=00:00:14.94 bitrate= 771.3kbits/s speed=3.92e+03x    \n",
      "video:1403kB audio:0kB subtitle:0kB other streams:0kB global headers:0kB muxing overhead: 0.269815%\n",
      "ffmpeg version 5.1.2 Copyright (c) 2000-2022 the FFmpeg developers\n",
      "  built with Apple clang version 14.0.0 (clang-1400.0.29.202)\n",
      "  configuration: --prefix=/opt/homebrew/Cellar/ffmpeg/5.1.2_6 --enable-shared --enable-pthreads --enable-version3 --cc=clang --host-cflags= --host-ldflags= --enable-ffplay --enable-gnutls --enable-gpl --enable-libaom --enable-libaribb24 --enable-libbluray --enable-libdav1d --enable-libmp3lame --enable-libopus --enable-librav1e --enable-librist --enable-librubberband --enable-libsnappy --enable-libsrt --enable-libsvtav1 --enable-libtesseract --enable-libtheora --enable-libvidstab --enable-libvmaf --enable-libvorbis --enable-libvpx --enable-libwebp --enable-libx264 --enable-libx265 --enable-libxml2 --enable-libxvid --enable-lzma --enable-libfontconfig --enable-libfreetype --enable-frei0r --enable-libass --enable-libopencore-amrnb --enable-libopencore-amrwb --enable-libopenjpeg --enable-libspeex --enable-libsoxr --enable-libzmq --enable-libzimg --disable-libjack --disable-indev=jack --enable-videotoolbox --enable-neon\n",
      "  libavutil      57. 28.100 / 57. 28.100\n",
      "  libavcodec     59. 37.100 / 59. 37.100\n",
      "  libavformat    59. 27.100 / 59. 27.100\n",
      "  libavdevice    59.  7.100 / 59.  7.100\n",
      "  libavfilter     8. 44.100 /  8. 44.100\n",
      "  libswscale      6.  7.100 /  6.  7.100\n",
      "  libswresample   4.  7.100 /  4.  7.100\n",
      "  libpostproc    56.  6.100 / 56.  6.100\n",
      "[mov,mp4,m4a,3gp,3g2,mj2 @ 0x13de052b0] Auto-inserting h264_mp4toannexb bitstream filter\n",
      "Input #0, concat, from 'input_list.txt':\n",
      "  Duration: N/A, start: 0.000000, bitrate: 760 kb/s\n",
      "  Stream #0:0(und): Video: h264 (High) (avc1 / 0x31637661), yuv420p(progressive), 246x280, 760 kb/s, 16.67 fps, 16.67 tbr, 12800 tbn\n",
      "    Metadata:\n",
      "      handler_name    : VideoHandler\n",
      "      vendor_id       : [0][0][0][0]\n",
      "      encoder         : Lavc59.37.100 libx264\n",
      "Output #0, mp4, to 'temp5.mp4':\n",
      "  Metadata:\n",
      "    encoder         : Lavf59.27.100\n",
      "  Stream #0:0(und): Video: h264 (High) (avc1 / 0x31637661), yuv420p(progressive), 246x280, q=2-31, 760 kb/s, 16.67 fps, 16.67 tbr, 12800 tbn\n",
      "    Metadata:\n",
      "      handler_name    : VideoHandler\n",
      "      vendor_id       : [0][0][0][0]\n",
      "      encoder         : Lavc59.37.100 libx264\n",
      "Stream mapping:\n",
      "  Stream #0:0 -> #0:0 (copy)\n",
      "Press [q] to stop, [?] for help\n",
      "[mov,mp4,m4a,3gp,3g2,mj2 @ 0x11de05430] Auto-inserting h264_mp4toannexb bitstream filter\n",
      "frame=  294 fps=0.0 q=-1.0 Lsize=    1641kB time=00:00:17.46 bitrate= 769.9kbits/s speed=4.37e+03x    \n",
      "video:1637kB audio:0kB subtitle:0kB other streams:0kB global headers:0kB muxing overhead: 0.261164%\n",
      "ffmpeg version 5.1.2 Copyright (c) 2000-2022 the FFmpeg developers\n",
      "  built with Apple clang version 14.0.0 (clang-1400.0.29.202)\n",
      "  configuration: --prefix=/opt/homebrew/Cellar/ffmpeg/5.1.2_6 --enable-shared --enable-pthreads --enable-version3 --cc=clang --host-cflags= --host-ldflags= --enable-ffplay --enable-gnutls --enable-gpl --enable-libaom --enable-libaribb24 --enable-libbluray --enable-libdav1d --enable-libmp3lame --enable-libopus --enable-librav1e --enable-librist --enable-librubberband --enable-libsnappy --enable-libsrt --enable-libsvtav1 --enable-libtesseract --enable-libtheora --enable-libvidstab --enable-libvmaf --enable-libvorbis --enable-libvpx --enable-libwebp --enable-libx264 --enable-libx265 --enable-libxml2 --enable-libxvid --enable-lzma --enable-libfontconfig --enable-libfreetype --enable-frei0r --enable-libass --enable-libopencore-amrnb --enable-libopencore-amrwb --enable-libopenjpeg --enable-libspeex --enable-libsoxr --enable-libzmq --enable-libzimg --disable-libjack --disable-indev=jack --enable-videotoolbox --enable-neon\n",
      "  libavutil      57. 28.100 / 57. 28.100\n",
      "  libavcodec     59. 37.100 / 59. 37.100\n",
      "  libavformat    59. 27.100 / 59. 27.100\n",
      "  libavdevice    59.  7.100 / 59.  7.100\n",
      "  libavfilter     8. 44.100 /  8. 44.100\n",
      "  libswscale      6.  7.100 /  6.  7.100\n",
      "  libswresample   4.  7.100 /  4.  7.100\n",
      "  libpostproc    56.  6.100 / 56.  6.100\n",
      "[mov,mp4,m4a,3gp,3g2,mj2 @ 0x125804590] Auto-inserting h264_mp4toannexb bitstream filter\n",
      "Input #0, concat, from 'input_list.txt':\n",
      "  Duration: N/A, start: 0.000000, bitrate: 760 kb/s\n",
      "  Stream #0:0(und): Video: h264 (High) (avc1 / 0x31637661), yuv420p(progressive), 246x280, 760 kb/s, 16.67 fps, 16.67 tbr, 12800 tbn\n",
      "    Metadata:\n",
      "      handler_name    : VideoHandler\n",
      "      vendor_id       : [0][0][0][0]\n",
      "      encoder         : Lavc59.37.100 libx264\n",
      "Output #0, mp4, to 'temp6.mp4':\n",
      "  Metadata:\n",
      "    encoder         : Lavf59.27.100\n",
      "  Stream #0:0(und): Video: h264 (High) (avc1 / 0x31637661), yuv420p(progressive), 246x280, q=2-31, 760 kb/s, 16.67 fps, 16.67 tbr, 12800 tbn\n",
      "    Metadata:\n",
      "      handler_name    : VideoHandler\n",
      "      vendor_id       : [0][0][0][0]\n",
      "      encoder         : Lavc59.37.100 libx264\n",
      "Stream mapping:\n",
      "  Stream #0:0 -> #0:0 (copy)\n",
      "Press [q] to stop, [?] for help\n",
      "[mov,mp4,m4a,3gp,3g2,mj2 @ 0x1259063b0] Auto-inserting h264_mp4toannexb bitstream filter\n",
      "frame=  336 fps=0.0 q=-1.0 Lsize=    1875kB time=00:00:19.98 bitrate= 768.9kbits/s speed=5.23e+03x    \n",
      "video:1870kB audio:0kB subtitle:0kB other streams:0kB global headers:0kB muxing overhead: 0.254675%\n",
      "ffmpeg version 5.1.2 Copyright (c) 2000-2022 the FFmpeg developers\n",
      "  built with Apple clang version 14.0.0 (clang-1400.0.29.202)\n",
      "  configuration: --prefix=/opt/homebrew/Cellar/ffmpeg/5.1.2_6 --enable-shared --enable-pthreads --enable-version3 --cc=clang --host-cflags= --host-ldflags= --enable-ffplay --enable-gnutls --enable-gpl --enable-libaom --enable-libaribb24 --enable-libbluray --enable-libdav1d --enable-libmp3lame --enable-libopus --enable-librav1e --enable-librist --enable-librubberband --enable-libsnappy --enable-libsrt --enable-libsvtav1 --enable-libtesseract --enable-libtheora --enable-libvidstab --enable-libvmaf --enable-libvorbis --enable-libvpx --enable-libwebp --enable-libx264 --enable-libx265 --enable-libxml2 --enable-libxvid --enable-lzma --enable-libfontconfig --enable-libfreetype --enable-frei0r --enable-libass --enable-libopencore-amrnb --enable-libopencore-amrwb --enable-libopenjpeg --enable-libspeex --enable-libsoxr --enable-libzmq --enable-libzimg --disable-libjack --disable-indev=jack --enable-videotoolbox --enable-neon\n",
      "  libavutil      57. 28.100 / 57. 28.100\n",
      "  libavcodec     59. 37.100 / 59. 37.100\n",
      "  libavformat    59. 27.100 / 59. 27.100\n",
      "  libavdevice    59.  7.100 / 59.  7.100\n",
      "  libavfilter     8. 44.100 /  8. 44.100\n",
      "  libswscale      6.  7.100 /  6.  7.100\n",
      "  libswresample   4.  7.100 /  4.  7.100\n",
      "  libpostproc    56.  6.100 / 56.  6.100\n",
      "[mov,mp4,m4a,3gp,3g2,mj2 @ 0x123e052b0] Auto-inserting h264_mp4toannexb bitstream filter\n",
      "Input #0, concat, from 'input_list.txt':\n",
      "  Duration: N/A, start: 0.000000, bitrate: 760 kb/s\n",
      "  Stream #0:0(und): Video: h264 (High) (avc1 / 0x31637661), yuv420p(progressive), 246x280, 760 kb/s, 16.67 fps, 16.67 tbr, 12800 tbn\n",
      "    Metadata:\n",
      "      handler_name    : VideoHandler\n",
      "      vendor_id       : [0][0][0][0]\n",
      "      encoder         : Lavc59.37.100 libx264\n",
      "Output #0, mp4, to 'temp7.mp4':\n",
      "  Metadata:\n",
      "    encoder         : Lavf59.27.100\n",
      "  Stream #0:0(und): Video: h264 (High) (avc1 / 0x31637661), yuv420p(progressive), 246x280, q=2-31, 760 kb/s, 16.67 fps, 16.67 tbr, 12800 tbn\n",
      "    Metadata:\n",
      "      handler_name    : VideoHandler\n",
      "      vendor_id       : [0][0][0][0]\n",
      "      encoder         : Lavc59.37.100 libx264\n",
      "Stream mapping:\n",
      "  Stream #0:0 -> #0:0 (copy)\n",
      "Press [q] to stop, [?] for help\n",
      "[mov,mp4,m4a,3gp,3g2,mj2 @ 0x113e05430] Auto-inserting h264_mp4toannexb bitstream filter\n",
      "frame=  378 fps=0.0 q=-1.0 Lsize=    2110kB time=00:00:22.50 bitrate= 768.1kbits/s speed=5.03e+03x    \n",
      "video:2104kB audio:0kB subtitle:0kB other streams:0kB global headers:0kB muxing overhead: 0.250370%\n",
      "ffmpeg version 5.1.2 Copyright (c) 2000-2022 the FFmpeg developers\n",
      "  built with Apple clang version 14.0.0 (clang-1400.0.29.202)\n",
      "  configuration: --prefix=/opt/homebrew/Cellar/ffmpeg/5.1.2_6 --enable-shared --enable-pthreads --enable-version3 --cc=clang --host-cflags= --host-ldflags= --enable-ffplay --enable-gnutls --enable-gpl --enable-libaom --enable-libaribb24 --enable-libbluray --enable-libdav1d --enable-libmp3lame --enable-libopus --enable-librav1e --enable-librist --enable-librubberband --enable-libsnappy --enable-libsrt --enable-libsvtav1 --enable-libtesseract --enable-libtheora --enable-libvidstab --enable-libvmaf --enable-libvorbis --enable-libvpx --enable-libwebp --enable-libx264 --enable-libx265 --enable-libxml2 --enable-libxvid --enable-lzma --enable-libfontconfig --enable-libfreetype --enable-frei0r --enable-libass --enable-libopencore-amrnb --enable-libopencore-amrwb --enable-libopenjpeg --enable-libspeex --enable-libsoxr --enable-libzmq --enable-libzimg --disable-libjack --disable-indev=jack --enable-videotoolbox --enable-neon\n",
      "  libavutil      57. 28.100 / 57. 28.100\n",
      "  libavcodec     59. 37.100 / 59. 37.100\n",
      "  libavformat    59. 27.100 / 59. 27.100\n",
      "  libavdevice    59.  7.100 / 59.  7.100\n",
      "  libavfilter     8. 44.100 /  8. 44.100\n",
      "  libswscale      6.  7.100 /  6.  7.100\n",
      "  libswresample   4.  7.100 /  4.  7.100\n",
      "  libpostproc    56.  6.100 / 56.  6.100\n",
      "[mov,mp4,m4a,3gp,3g2,mj2 @ 0x14a7050a0] Auto-inserting h264_mp4toannexb bitstream filter\n",
      "Input #0, concat, from 'input_list.txt':\n",
      "  Duration: N/A, start: 0.000000, bitrate: 760 kb/s\n",
      "  Stream #0:0(und): Video: h264 (High) (avc1 / 0x31637661), yuv420p(progressive), 246x280, 760 kb/s, 16.67 fps, 16.67 tbr, 12800 tbn\n",
      "    Metadata:\n",
      "      handler_name    : VideoHandler\n",
      "      vendor_id       : [0][0][0][0]\n",
      "      encoder         : Lavc59.37.100 libx264\n",
      "Output #0, mp4, to 'temp8.mp4':\n",
      "  Metadata:\n",
      "    encoder         : Lavf59.27.100\n",
      "  Stream #0:0(und): Video: h264 (High) (avc1 / 0x31637661), yuv420p(progressive), 246x280, q=2-31, 760 kb/s, 16.67 fps, 16.67 tbr, 12800 tbn\n",
      "    Metadata:\n",
      "      handler_name    : VideoHandler\n",
      "      vendor_id       : [0][0][0][0]\n",
      "      encoder         : Lavc59.37.100 libx264\n",
      "Stream mapping:\n",
      "  Stream #0:0 -> #0:0 (copy)\n",
      "Press [q] to stop, [?] for help\n",
      "[mov,mp4,m4a,3gp,3g2,mj2 @ 0x14c0063b0] Auto-inserting h264_mp4toannexb bitstream filter\n",
      "frame=  420 fps=0.0 q=-1.0 Lsize=    2344kB time=00:00:25.02 bitrate= 767.4kbits/s speed=6.52e+03x    \n",
      "video:2338kB audio:0kB subtitle:0kB other streams:0kB global headers:0kB muxing overhead: 0.246259%\n",
      "ffmpeg version 5.1.2 Copyright (c) 2000-2022 the FFmpeg developers\n",
      "  built with Apple clang version 14.0.0 (clang-1400.0.29.202)\n",
      "  configuration: --prefix=/opt/homebrew/Cellar/ffmpeg/5.1.2_6 --enable-shared --enable-pthreads --enable-version3 --cc=clang --host-cflags= --host-ldflags= --enable-ffplay --enable-gnutls --enable-gpl --enable-libaom --enable-libaribb24 --enable-libbluray --enable-libdav1d --enable-libmp3lame --enable-libopus --enable-librav1e --enable-librist --enable-librubberband --enable-libsnappy --enable-libsrt --enable-libsvtav1 --enable-libtesseract --enable-libtheora --enable-libvidstab --enable-libvmaf --enable-libvorbis --enable-libvpx --enable-libwebp --enable-libx264 --enable-libx265 --enable-libxml2 --enable-libxvid --enable-lzma --enable-libfontconfig --enable-libfreetype --enable-frei0r --enable-libass --enable-libopencore-amrnb --enable-libopencore-amrwb --enable-libopenjpeg --enable-libspeex --enable-libsoxr --enable-libzmq --enable-libzimg --disable-libjack --disable-indev=jack --enable-videotoolbox --enable-neon\n",
      "  libavutil      57. 28.100 / 57. 28.100\n",
      "  libavcodec     59. 37.100 / 59. 37.100\n",
      "  libavformat    59. 27.100 / 59. 27.100\n",
      "  libavdevice    59.  7.100 / 59.  7.100\n",
      "  libavfilter     8. 44.100 /  8. 44.100\n",
      "  libswscale      6.  7.100 /  6.  7.100\n",
      "  libswresample   4.  7.100 /  4.  7.100\n",
      "  libpostproc    56.  6.100 / 56.  6.100\n",
      "[mov,mp4,m4a,3gp,3g2,mj2 @ 0x157f04c20] Auto-inserting h264_mp4toannexb bitstream filter\n",
      "Input #0, concat, from 'input_list.txt':\n",
      "  Duration: N/A, start: 0.000000, bitrate: 760 kb/s\n",
      "  Stream #0:0(und): Video: h264 (High) (avc1 / 0x31637661), yuv420p(progressive), 246x280, 760 kb/s, 16.67 fps, 16.67 tbr, 12800 tbn\n",
      "    Metadata:\n",
      "      handler_name    : VideoHandler\n",
      "      vendor_id       : [0][0][0][0]\n",
      "      encoder         : Lavc59.37.100 libx264\n",
      "Output #0, mp4, to 'temp9.mp4':\n",
      "  Metadata:\n",
      "    encoder         : Lavf59.27.100\n",
      "  Stream #0:0(und): Video: h264 (High) (avc1 / 0x31637661), yuv420p(progressive), 246x280, q=2-31, 760 kb/s, 16.67 fps, 16.67 tbr, 12800 tbn\n",
      "    Metadata:\n",
      "      handler_name    : VideoHandler\n",
      "      vendor_id       : [0][0][0][0]\n",
      "      encoder         : Lavc59.37.100 libx264\n",
      "Stream mapping:\n",
      "  Stream #0:0 -> #0:0 (copy)\n",
      "Press [q] to stop, [?] for help\n",
      "[mov,mp4,m4a,3gp,3g2,mj2 @ 0x137e04080] Auto-inserting h264_mp4toannexb bitstream filter\n",
      "frame=  462 fps=0.0 q=-1.0 Lsize=    2578kB time=00:00:27.54 bitrate= 766.9kbits/s speed=5.71e+03x    \n",
      "video:2572kB audio:0kB subtitle:0kB other streams:0kB global headers:0kB muxing overhead: 0.242895%\n",
      "ffmpeg version 5.1.2 Copyright (c) 2000-2022 the FFmpeg developers\n",
      "  built with Apple clang version 14.0.0 (clang-1400.0.29.202)\n",
      "  configuration: --prefix=/opt/homebrew/Cellar/ffmpeg/5.1.2_6 --enable-shared --enable-pthreads --enable-version3 --cc=clang --host-cflags= --host-ldflags= --enable-ffplay --enable-gnutls --enable-gpl --enable-libaom --enable-libaribb24 --enable-libbluray --enable-libdav1d --enable-libmp3lame --enable-libopus --enable-librav1e --enable-librist --enable-librubberband --enable-libsnappy --enable-libsrt --enable-libsvtav1 --enable-libtesseract --enable-libtheora --enable-libvidstab --enable-libvmaf --enable-libvorbis --enable-libvpx --enable-libwebp --enable-libx264 --enable-libx265 --enable-libxml2 --enable-libxvid --enable-lzma --enable-libfontconfig --enable-libfreetype --enable-frei0r --enable-libass --enable-libopencore-amrnb --enable-libopencore-amrwb --enable-libopenjpeg --enable-libspeex --enable-libsoxr --enable-libzmq --enable-libzimg --disable-libjack --disable-indev=jack --enable-videotoolbox --enable-neon\n",
      "  libavutil      57. 28.100 / 57. 28.100\n",
      "  libavcodec     59. 37.100 / 59. 37.100\n",
      "  libavformat    59. 27.100 / 59. 27.100\n",
      "  libavdevice    59.  7.100 / 59.  7.100\n",
      "  libavfilter     8. 44.100 /  8. 44.100\n",
      "  libswscale      6.  7.100 /  6.  7.100\n",
      "  libswresample   4.  7.100 /  4.  7.100\n",
      "  libpostproc    56.  6.100 / 56.  6.100\n",
      "[mov,mp4,m4a,3gp,3g2,mj2 @ 0x14f6052b0] Auto-inserting h264_mp4toannexb bitstream filter\n",
      "Input #0, concat, from 'input_list.txt':\n",
      "  Duration: N/A, start: 0.000000, bitrate: 760 kb/s\n",
      "  Stream #0:0(und): Video: h264 (High) (avc1 / 0x31637661), yuv420p(progressive), 246x280, 760 kb/s, 16.67 fps, 16.67 tbr, 12800 tbn\n",
      "    Metadata:\n",
      "      handler_name    : VideoHandler\n",
      "      vendor_id       : [0][0][0][0]\n",
      "      encoder         : Lavc59.37.100 libx264\n",
      "Output #0, mp4, to 'temp10.mp4':\n",
      "  Metadata:\n",
      "    encoder         : Lavf59.27.100\n",
      "  Stream #0:0(und): Video: h264 (High) (avc1 / 0x31637661), yuv420p(progressive), 246x280, q=2-31, 760 kb/s, 16.67 fps, 16.67 tbr, 12800 tbn\n",
      "    Metadata:\n",
      "      handler_name    : VideoHandler\n",
      "      vendor_id       : [0][0][0][0]\n",
      "      encoder         : Lavc59.37.100 libx264\n",
      "Stream mapping:\n",
      "  Stream #0:0 -> #0:0 (copy)\n",
      "Press [q] to stop, [?] for help\n",
      "[mov,mp4,m4a,3gp,3g2,mj2 @ 0x13f604080] Auto-inserting h264_mp4toannexb bitstream filter\n",
      "frame=  504 fps=0.0 q=-1.0 Lsize=    2812kB time=00:00:30.06 bitrate= 766.5kbits/s speed=6.26e+03x    \n",
      "video:2806kB audio:0kB subtitle:0kB other streams:0kB global headers:0kB muxing overhead: 0.240091%\n",
      "ffmpeg version 5.1.2 Copyright (c) 2000-2022 the FFmpeg developers\n",
      "  built with Apple clang version 14.0.0 (clang-1400.0.29.202)\n",
      "  configuration: --prefix=/opt/homebrew/Cellar/ffmpeg/5.1.2_6 --enable-shared --enable-pthreads --enable-version3 --cc=clang --host-cflags= --host-ldflags= --enable-ffplay --enable-gnutls --enable-gpl --enable-libaom --enable-libaribb24 --enable-libbluray --enable-libdav1d --enable-libmp3lame --enable-libopus --enable-librav1e --enable-librist --enable-librubberband --enable-libsnappy --enable-libsrt --enable-libsvtav1 --enable-libtesseract --enable-libtheora --enable-libvidstab --enable-libvmaf --enable-libvorbis --enable-libvpx --enable-libwebp --enable-libx264 --enable-libx265 --enable-libxml2 --enable-libxvid --enable-lzma --enable-libfontconfig --enable-libfreetype --enable-frei0r --enable-libass --enable-libopencore-amrnb --enable-libopencore-amrwb --enable-libopenjpeg --enable-libspeex --enable-libsoxr --enable-libzmq --enable-libzimg --disable-libjack --disable-indev=jack --enable-videotoolbox --enable-neon\n",
      "  libavutil      57. 28.100 / 57. 28.100\n",
      "  libavcodec     59. 37.100 / 59. 37.100\n",
      "  libavformat    59. 27.100 / 59. 27.100\n",
      "  libavdevice    59.  7.100 / 59.  7.100\n",
      "  libavfilter     8. 44.100 /  8. 44.100\n",
      "  libswscale      6.  7.100 /  6.  7.100\n",
      "  libswresample   4.  7.100 /  4.  7.100\n",
      "  libpostproc    56.  6.100 / 56.  6.100\n",
      "[mov,mp4,m4a,3gp,3g2,mj2 @ 0x13f604f50] Auto-inserting h264_mp4toannexb bitstream filter\n",
      "Input #0, concat, from 'input_list.txt':\n",
      "  Duration: N/A, start: 0.000000, bitrate: 759 kb/s\n",
      "  Stream #0:0(und): Video: h264 (High) (avc1 / 0x31637661), yuv420p(progressive), 246x280, 759 kb/s, 16.67 fps, 16.67 tbr, 12800 tbn\n",
      "    Metadata:\n",
      "      handler_name    : VideoHandler\n",
      "      vendor_id       : [0][0][0][0]\n",
      "      encoder         : Lavc59.37.100 libx264\n",
      "Output #0, mp4, to 'A_face_videos/Optimus_Prime_ALong.mp4':\n",
      "  Metadata:\n",
      "    encoder         : Lavf59.27.100\n",
      "  Stream #0:0(und): Video: h264 (High) (avc1 / 0x31637661), yuv420p(progressive), 246x280, q=2-31, 759 kb/s, 16.67 fps, 16.67 tbr, 12800 tbn\n",
      "    Metadata:\n",
      "      handler_name    : VideoHandler\n",
      "      vendor_id       : [0][0][0][0]\n",
      "      encoder         : Lavc59.37.100 libx264\n",
      "Stream mapping:\n",
      "  Stream #0:0 -> #0:0 (copy)\n",
      "Press [q] to stop, [?] for help\n",
      "[mov,mp4,m4a,3gp,3g2,mj2 @ 0x11f6063b0] Auto-inserting h264_mp4toannexb bitstream filter\n",
      "frame=  546 fps=0.0 q=-1.0 Lsize=    3047kB time=00:00:32.58 bitrate= 766.1kbits/s speed=6.84e+03x    \n",
      "video:3040kB audio:0kB subtitle:0kB other streams:0kB global headers:0kB muxing overhead: 0.237719%\n"
     ]
    }
   ],
   "source": [
    "vid = \"A_face_videos/Optimus_Prime_A.mp4\"\n",
    "output_path=\"A_face_videos/Optimus_Prime_ALong.mp4\"\n",
    "i=0\n",
    "append_vids(vid, vid, \"temp0.mp4\")\n",
    "while get_mp4_length(f\"temp{i}.mp4\")<30:\n",
    "    append_vids(f\"temp{i}.mp4\",vid,  f\"temp{i+1}.mp4\")\n",
    "    i+=1\n",
    "\n",
    "append_vids(vid, f\"temp{i}.mp4\",  output_path)\n",
    "\n",
    "while os.path.exists(f\"temp{i}.mp4\"):\n",
    "        os.remove(f\"temp{i}.mp4\")\n",
    "        i-=1"
   ],
   "metadata": {
    "collapsed": false
   }
  },
  {
   "cell_type": "code",
   "execution_count": null,
   "outputs": [],
   "source": [
    "if os.path.exists(\"temp0.mp4\"):\n",
    "    os.remove(\"temp0.mp4\")\n",
    "if os.path.exists(\"temp1.mp4\"):\n",
    "    os.remove(\"temp1.mp4\")\n",
    "if os.path.exists(\"temp2.mp4\"):\n",
    "    os.remove(\"temp2.mp4\")\n",
    "if os.path.exists(\"temp3.mp4\"):\n",
    "    os.remove(\"temp3.mp4\")\n",
    "if os.path.exists(\"temp4.mp4\"):\n",
    "    os.remove(\"temp4.mp4\")\n",
    "if os.path.exists(\"temp5.mp4\"):\n",
    "    os.remove(\"temp5.mp4\")"
   ],
   "metadata": {
    "collapsed": false
   }
  },
  {
   "cell_type": "code",
   "execution_count": 6,
   "outputs": [
    {
     "name": "stdout",
     "output_type": "stream",
     "text": [
      "['audio_0.mpeg', 'audio_1.mpeg', 'audio_2.mpeg', 'audio_3.mpeg', 'audio_4.mpeg', 'audio_5.mpeg', 'audio_6.mpeg', 'audio_7.mpeg']\n",
      "Making Video for audio/audio_0.mpeg...\n",
      "Length of video:\n",
      "13.862068965517242\n",
      "Length of audio clip:\n",
      "13.5575\n",
      "Length of trimmed videos:\n",
      "13.586206896551724\n",
      "13.586206896551724\n",
      "Length of combined videos:\n",
      "13.586206896551724\n",
      "Making Video for audio/audio_1.mpeg...\n",
      "Length of video:\n",
      "11.379310344827585\n",
      "Length of audio clip:\n",
      "11.128125\n",
      "Length of trimmed videos:\n",
      "11.137931034482758\n",
      "11.137931034482758\n",
      "Length of combined videos:\n",
      "11.137931034482758\n",
      "Making Video for audio/audio_2.mpeg...\n",
      "Length of video:\n",
      "12.10344827586207\n",
      "Length of audio clip:\n",
      "11.833375\n",
      "Length of trimmed videos:\n",
      "11.862068965517242\n",
      "11.862068965517242\n",
      "Length of combined videos:\n",
      "11.862068965517242\n",
      "Making Video for audio/audio_3.mpeg...\n",
      "Length of video:\n",
      "12.03448275862069\n",
      "Length of audio clip:\n",
      "11.781125\n",
      "Length of trimmed videos:\n",
      "11.793103448275861\n",
      "11.793103448275861\n",
      "Length of combined videos:\n",
      "11.793103448275861\n",
      "Making Video for audio/audio_4.mpeg...\n",
      "Length of video:\n",
      "12.517241379310345\n",
      "Length of audio clip:\n",
      "12.251375\n",
      "Length of trimmed videos:\n",
      "12.275862068965518\n",
      "12.275862068965518\n",
      "Length of combined videos:\n",
      "12.275862068965518\n",
      "Making Video for audio/audio_5.mpeg...\n",
      "Length of video:\n",
      "11.724137931034482\n",
      "Length of audio clip:\n",
      "11.46775\n",
      "Length of trimmed videos:\n",
      "11.482758620689655\n",
      "11.482758620689655\n",
      "Length of combined videos:\n",
      "11.482758620689655\n",
      "Making Video for audio/audio_6.mpeg...\n",
      "Length of video:\n",
      "12.206896551724139\n",
      "Length of audio clip:\n",
      "11.937875\n",
      "Length of trimmed videos:\n",
      "11.96551724137931\n",
      "11.96551724137931\n",
      "Length of combined videos:\n",
      "11.96551724137931\n",
      "Making Video for audio/audio_7.mpeg...\n",
      "Length of video:\n",
      "11.172413793103448\n",
      "Length of audio clip:\n",
      "10.94525\n",
      "Length of trimmed videos:\n",
      "10.96551724137931\n",
      "10.96551724137931\n",
      "Length of combined videos:\n",
      "10.96551724137931\n"
     ]
    },
    {
     "name": "stderr",
     "output_type": "stream",
     "text": [
      "ffmpeg version 5.1.2 Copyright (c) 2000-2022 the FFmpeg developers\n",
      "  built with Apple clang version 14.0.0 (clang-1400.0.29.202)\n",
      "  configuration: --prefix=/opt/homebrew/Cellar/ffmpeg/5.1.2_6 --enable-shared --enable-pthreads --enable-version3 --cc=clang --host-cflags= --host-ldflags= --enable-ffplay --enable-gnutls --enable-gpl --enable-libaom --enable-libaribb24 --enable-libbluray --enable-libdav1d --enable-libmp3lame --enable-libopus --enable-librav1e --enable-librist --enable-librubberband --enable-libsnappy --enable-libsrt --enable-libsvtav1 --enable-libtesseract --enable-libtheora --enable-libvidstab --enable-libvmaf --enable-libvorbis --enable-libvpx --enable-libwebp --enable-libx264 --enable-libx265 --enable-libxml2 --enable-libxvid --enable-lzma --enable-libfontconfig --enable-libfreetype --enable-frei0r --enable-libass --enable-libopencore-amrnb --enable-libopencore-amrwb --enable-libopenjpeg --enable-libspeex --enable-libsoxr --enable-libzmq --enable-libzimg --disable-libjack --disable-indev=jack --enable-videotoolbox --enable-neon\n",
      "  libavutil      57. 28.100 / 57. 28.100\n",
      "  libavcodec     59. 37.100 / 59. 37.100\n",
      "  libavformat    59. 27.100 / 59. 27.100\n",
      "  libavdevice    59.  7.100 / 59.  7.100\n",
      "  libavfilter     8. 44.100 /  8. 44.100\n",
      "  libswscale      6.  7.100 /  6.  7.100\n",
      "  libswresample   4.  7.100 /  4.  7.100\n",
      "  libpostproc    56.  6.100 / 56.  6.100\n",
      "Input #0, mov,mp4,m4a,3gp,3g2,mj2, from 'final_7.mp4':\n",
      "  Metadata:\n",
      "    major_brand     : isom\n",
      "    minor_version   : 512\n",
      "    compatible_brands: isomiso2mp41\n",
      "    encoder         : Lavf59.27.100\n",
      "  Duration: 00:01:35.07, start: 0.000000, bitrate: 494 kb/s\n",
      "  Stream #0:0[0x1](und): Video: mpeg4 (Simple Profile) (mp4v / 0x7634706D), yuv420p, 512x256 [SAR 1:1 DAR 2:1], 492 kb/s, 29 fps, 29 tbr, 14848 tbn (default)\n",
      "    Metadata:\n",
      "      handler_name    : VideoHandler\n",
      "      vendor_id       : [0][0][0][0]\n",
      "Input #1, mp3, from 'mixed.mp3':\n",
      "  Metadata:\n",
      "    encoder         : Lavf59.27.100\n",
      "  Duration: 00:01:34.94, start: 0.023021, bitrate: 128 kb/s\n",
      "  Stream #1:0: Audio: mp3, 48000 Hz, stereo, fltp, 128 kb/s\n",
      "    Metadata:\n",
      "      encoder         : Lavc59.37\n",
      "Stream mapping:\n",
      "  Stream #0:0 -> #0:0 (copy)\n",
      "  Stream #1:0 -> #0:1 (mp3 (mp3float) -> aac (native))\n",
      "Press [q] to stop, [?] for help\n",
      "Output #0, mp4, to 'output.mp4':\n",
      "  Metadata:\n",
      "    major_brand     : isom\n",
      "    minor_version   : 512\n",
      "    compatible_brands: isomiso2mp41\n",
      "    encoder         : Lavf59.27.100\n",
      "  Stream #0:0(und): Video: mpeg4 (Simple Profile) (mp4v / 0x7634706D), yuv420p, 512x256 [SAR 1:1 DAR 2:1], q=2-31, 492 kb/s, 29 fps, 29 tbr, 14848 tbn (default)\n",
      "    Metadata:\n",
      "      handler_name    : VideoHandler\n",
      "      vendor_id       : [0][0][0][0]\n",
      "  Stream #0:1: Audio: aac (LC) (mp4a / 0x6134706D), 48000 Hz, stereo, fltp, 128 kb/s\n",
      "    Metadata:\n",
      "      encoder         : Lavc59.37.100 aac\n",
      "frame= 2757 fps=1576 q=-1.0 Lsize=    7355kB time=00:01:35.03 bitrate= 634.0kbits/s speed=54.3x    \n",
      "video:5721kB audio:1558kB subtitle:0kB other streams:0kB global headers:0kB muxing overhead: 1.054182%\n",
      "[aac @ 0x13b00ce20] Qavg: 592.436\n"
     ]
    }
   ],
   "source": [
    "import spitfire_deepfake as sd\n",
    "import os\n",
    "\n",
    "audio_files = os.listdir(\"audio\")\n",
    "audio_files.sort()\n",
    "audio_files.remove(\".DS_Store\")\n",
    "print(audio_files)\n",
    "# for i in range(len(audio_files)):\n",
    "#     audio_files[i] = os.path.join(\"audio/\", audio_files[i])\n",
    "sd.create_video(audio_files, \"Trump\", \"Obama\")"
   ],
   "metadata": {
    "collapsed": false
   }
  },
  {
   "cell_type": "code",
   "execution_count": null,
   "outputs": [],
   "source": [],
   "metadata": {
    "collapsed": false
   }
  }
 ],
 "metadata": {
  "kernelspec": {
   "display_name": "Python 3",
   "language": "python",
   "name": "python3"
  },
  "language_info": {
   "codemirror_mode": {
    "name": "ipython",
    "version": 2
   },
   "file_extension": ".py",
   "mimetype": "text/x-python",
   "name": "python",
   "nbconvert_exporter": "python",
   "pygments_lexer": "ipython2",
   "version": "2.7.6"
  }
 },
 "nbformat": 4,
 "nbformat_minor": 0
}
